<svg xmlns="http://www.w3.org/2000/svg" viewBox="0 0 585.13 520.59"><path d="M258.11,453a14.29,14.29,0,0,1,14.33,14.32v49.58H221.76a14.31,14.31,0,0,1-14.33-14.32V479h53.11V467.31a2.34,2.34,0,0,0-.72-1.71,2.31,2.31,0,0,0-1.71-.71H207.43V453Zm2.43,52v-14.1H219.33v11.68a2.3,2.3,0,0,0,.72,1.7,2.34,2.34,0,0,0,1.71.72Z" transform="translate(-207.43 -83.21)" style="fill:#494368"/><path d="M375.23,453H387.9l-24,63.9h-9.69L332.7,469.4l-20.27,47.49-.22-.11.11.11h-9.59L277.61,453h12.67l17.3,42.41L326,453h13.55L359,495.4Z" transform="translate(-207.43 -83.21)" style="fill:#494368"/><path d="M442.44,453a14.29,14.29,0,0,1,14.32,14.32v23.58H403.65v11.68a2.3,2.3,0,0,0,.72,1.7,2.34,2.34,0,0,0,1.71.72h50.68v11.9H406.08a14.29,14.29,0,0,1-14.32-14.32V467.31A14.27,14.27,0,0,1,406.08,453Zm-38.79,26h41.21V467.31a2.34,2.34,0,0,0-.72-1.71,2.29,2.29,0,0,0-1.7-.71H406.08a2.44,2.44,0,0,0-2.43,2.42Z" transform="translate(-207.43 -83.21)" style="fill:#494368"/><path d="M532.67,467.31v2.42h-11.9v-2.42a2.34,2.34,0,0,0-.72-1.71,2.3,2.3,0,0,0-1.7-.71H482a2.44,2.44,0,0,0-2.43,2.42v9.25A2.46,2.46,0,0,0,482,479h36.36a14.29,14.29,0,0,1,14.32,14.32v9.26a14.31,14.31,0,0,1-14.32,14.32H482a14.31,14.31,0,0,1-14.33-14.32v-2.43h11.9v2.43a2.3,2.3,0,0,0,.72,1.7A2.34,2.34,0,0,0,482,505h36.36a2.46,2.46,0,0,0,2.42-2.42v-9.26a2.44,2.44,0,0,0-2.42-2.42H482a14.31,14.31,0,0,1-14.33-14.33v-9.25A14.29,14.29,0,0,1,482,453h36.36a14.29,14.29,0,0,1,14.32,14.32Z" transform="translate(-207.43 -83.21)" style="fill:#494368"/><path d="M557.9,453h36.35a14.29,14.29,0,0,1,14.33,14.32v35.26a14.31,14.31,0,0,1-14.33,14.32H557.9a14.31,14.31,0,0,1-14.33-14.32V467.31A14.29,14.29,0,0,1,557.9,453Zm36.35,11.9H557.9a2.31,2.31,0,0,0-1.71.71,2.34,2.34,0,0,0-.72,1.71v35.26A2.46,2.46,0,0,0,557.9,505h36.35a2.46,2.46,0,0,0,2.43-2.42V467.31a2.34,2.34,0,0,0-.72-1.71A2.31,2.31,0,0,0,594.25,464.89Z" transform="translate(-207.43 -83.21)" style="fill:#494368"/><path d="M701.78,453a14.29,14.29,0,0,1,14.33,14.32v49.58H704.32V467.31a2.34,2.34,0,0,0-.72-1.71,2.45,2.45,0,0,0-1.82-.71H676.55a2.29,2.29,0,0,0-1.7.71,2.34,2.34,0,0,0-.72,1.71v49.58h-11.9V467.31a2.34,2.34,0,0,0-.72-1.71,2.29,2.29,0,0,0-1.7-.71H634.47a2.44,2.44,0,0,0-2.43,2.42v49.58h-11.9V453Z" transform="translate(-207.43 -83.21)" style="fill:#494368"/><path d="M778.24,453a14.29,14.29,0,0,1,14.33,14.32v23.58H739.46v11.68a2.46,2.46,0,0,0,2.43,2.42h50.68v11.9H741.89a14.31,14.31,0,0,1-14.33-14.32V467.31A14.29,14.29,0,0,1,741.89,453Zm-38.78,26h41.21V467.31a2.44,2.44,0,0,0-2.43-2.42H741.89a2.31,2.31,0,0,0-1.71.71,2.34,2.34,0,0,0-.72,1.71Z" transform="translate(-207.43 -83.21)" style="fill:#494368"/><path d="M792.46,220.85v0l-150-137.62-21.07,23,125,114.69H253.61l125-114.69-21.07-23-150,137.62v0h-.11v90.71c0,41,39.48,74.39,88,74.39H388c48.53,0,88-33.36,88-74.39V252h48v59.55c0,41,39.48,74.39,88,74.39h92.53c48.53,0,88-33.36,88-74.39V220.85Z" transform="translate(-207.43 -83.21)" style="fill:#1fa2a1"/><path d="M387.9,288.69v-.3a5.8,5.8,0,0,0-5.8-5.8h-.3a5.75,5.75,0,0,0-3.4,1.1l-29.2-16.9v-.7a5.8,5.8,0,0,0-5.8-5.8h-.3a5.8,5.8,0,0,0-5.8,5.8v.7l-29.1,16.8a10.91,10.91,0,0,0-1.1-.6v-33.9a6,6,0,1,0-8.4-5.5,6.18,6.18,0,0,0,3.6,5.5V283a5.84,5.84,0,0,0-3.5,5.4v.3a6,6,0,0,0,3.5,5.4v33.5a5.84,5.84,0,0,0-3.5,5.4v.3a5.8,5.8,0,0,0,5.8,5.8h.3a5.75,5.75,0,0,0,3.4-1.1l29.1,16.8v.7a5.8,5.8,0,0,0,5.8,5.8h.3a5.8,5.8,0,0,0,5.8-5.8v-.7l29-16.8a5.75,5.75,0,0,0,3.4,1.1h.3a5.8,5.8,0,0,0,5.8-5.8V333a6,6,0,0,0-3.5-5.4v-33.5A5.93,5.93,0,0,0,387.9,288.69Zm-8.5,38c-2.8-4.5-7.5-9.5-13.2-14.3-1.3,1.1-2.7,2.1-4,3.1,7.4,6,12.1,11.6,14,15.6a5.66,5.66,0,0,0-.3,1.8v.7l-29.1,16.8a5.46,5.46,0,0,0-2.6-1c-3.7-6.1-7.2-19.9-7.2-38.6,0-2.9.1-5.7.2-8.3-1.7-.8-3.3-1.6-4.8-2.3-.3,3.5-.4,7.1-.4,10.6,0,15.1,2.3,30.3,6.8,39.2L312,334.49c5,0,11.5-1.5,18.8-4.4l-.6-5.1c-9.6,3.9-17,5.1-20.9,4.3a5.78,5.78,0,0,0-2.3-1.8V294a5.78,5.78,0,0,0,2.3-1.8c6-1.2,20,2.2,37.7,12.8,2.4,1.4,4.6,2.8,6.7,4.3,1.5-1,2.9-2.1,4.2-3.1q-4-2.85-8.4-5.4c-14.5-8.7-28.5-13.7-37.6-13.7l26.8-15.5c-2.4,4.7-4.1,11.1-5.2,18.3,1.5.6,3.1,1.3,4.7,2.1,1.4-9.2,3.6-16,5.9-19.8a5.89,5.89,0,0,0,2.6-1L375.8,288v.7a5.23,5.23,0,0,0,.3,1.8c-3,6.2-13,16.4-29,26-2.5,1.5-4.9,2.8-7.3,4.1.1,1.9.3,3.6.5,5.3q4.65-2.25,9.3-5.1c12.8-7.7,24.6-17.4,29.7-25.8v31.7Z" transform="translate(-207.43 -83.21)" style="fill:#fff"/><path d="M709.85,288.69v-.3a5.8,5.8,0,0,0-5.8-5.8h-.3a5.75,5.75,0,0,0-3.4,1.1l-29.2-16.9v-.7a5.8,5.8,0,0,0-5.8-5.8h-.3a5.8,5.8,0,0,0-5.8,5.8v.7l-29.1,16.8a10.91,10.91,0,0,0-1.1-.6v-33.9a6,6,0,1,0-8.4-5.5,6.18,6.18,0,0,0,3.6,5.5V283a5.84,5.84,0,0,0-3.5,5.4v.3a6,6,0,0,0,3.5,5.4v33.5a5.84,5.84,0,0,0-3.5,5.4v.3a5.8,5.8,0,0,0,5.8,5.8h.3a5.75,5.75,0,0,0,3.4-1.1l29.1,16.8v.7a5.8,5.8,0,0,0,5.8,5.8h.3a5.8,5.8,0,0,0,5.8-5.8v-.7l29-16.8a5.75,5.75,0,0,0,3.4,1.1h.3a5.8,5.8,0,0,0,5.8-5.8V333a6,6,0,0,0-3.5-5.4v-33.5A5.93,5.93,0,0,0,709.85,288.69Zm-8.5,38c-2.8-4.5-7.5-9.5-13.2-14.3-1.3,1.1-2.7,2.1-4,3.1,7.4,6,12.1,11.6,14,15.6a5.66,5.66,0,0,0-.3,1.8v.7l-29.1,16.8a5.46,5.46,0,0,0-2.6-1c-3.7-6.1-7.2-19.9-7.2-38.6,0-2.9.1-5.7.2-8.3-1.7-.8-3.3-1.6-4.8-2.3-.3,3.5-.4,7.1-.4,10.6,0,15.1,2.3,30.3,6.8,39.2L634,334.49c5,0,11.5-1.5,18.8-4.4l-.6-5.1c-9.6,3.9-17,5.1-20.9,4.3a5.78,5.78,0,0,0-2.3-1.8V294a5.78,5.78,0,0,0,2.3-1.8c6-1.2,20,2.2,37.7,12.8,2.4,1.4,4.6,2.8,6.7,4.3,1.5-1,2.9-2.1,4.2-3.1q-4.05-2.85-8.4-5.4c-14.5-8.7-28.5-13.7-37.6-13.7l26.8-15.5c-2.4,4.7-4.1,11.1-5.2,18.3,1.5.6,3.1,1.3,4.7,2.1,1.4-9.2,3.6-16,5.9-19.8a5.89,5.89,0,0,0,2.6-1l29.1,16.8v.7a5.23,5.23,0,0,0,.3,1.8c-3,6.2-13,16.4-29,26-2.5,1.5-4.9,2.8-7.3,4.1.1,1.9.3,3.6.5,5.3q4.65-2.25,9.3-5.1c12.8-7.7,24.6-17.4,29.7-25.8v31.7Z" transform="translate(-207.43 -83.21)" style="fill:#fff"/><path d="M367.09,603.8v-77H379v19h33.7a12.74,12.74,0,0,1,9.4,4,13,13,0,0,1,3.9,9.45v31.2a13,13,0,0,1-3.9,9.45,12.7,12.7,0,0,1-9.4,3.95Zm15.6-11.9h27.8c1.67,0,2.68-.18,3.05-.55s.55-1.38.55-3.05v-27c0-1.67-.18-2.68-.55-3s-1.38-.55-3.05-.55h-27.8c-1.67,0-2.7.18-3.1.55s-.6,1.38-.6,3v27c0,1.67.2,2.69.6,3.05S381,591.9,382.69,591.9Z" transform="translate(-207.43 -83.21)" style="fill:#494368"/><path d="M446.89,603.8a13.49,13.49,0,0,1-13.4-13.4V559.2a13.49,13.49,0,0,1,13.4-13.4H479a13.4,13.4,0,0,1,13.4,13.4v21.6h-47v7.5c0,1.67.18,2.69.55,3.05s1.38.55,3.05.55h43.4v11.9Zm-1.5-33.9h35.1v-8.6c0-1.67-.18-2.68-.55-3s-1.38-.55-3.05-.55H449c-1.67,0-2.68.18-3.05.55s-.55,1.38-.55,3Z" transform="translate(-207.43 -83.21)" style="fill:#494368"/><path d="M515.29,603.8a13.49,13.49,0,0,1-13.4-13.4v-1.9h11.9v.7a2.18,2.18,0,0,0,2.7,2.7h29.7a2.18,2.18,0,0,0,2.7-2.7v-5.7a3.09,3.09,0,0,0-.55-2.15,3.12,3.12,0,0,0-2.15-.55h-30.9a13.49,13.49,0,0,1-13.4-13.4v-8.2a13.49,13.49,0,0,1,13.4-13.4h32.1a13.49,13.49,0,0,1,13.5,13.4v1.9h-12v-.7a2.18,2.18,0,0,0-2.7-2.7h-29.7a2.18,2.18,0,0,0-2.7,2.7v5.7a2.18,2.18,0,0,0,2.7,2.7h30.9a13.49,13.49,0,0,1,13.5,13.4v8.2a13.49,13.49,0,0,1-13.5,13.4Z" transform="translate(-207.43 -83.21)" style="fill:#494368"/><path d="M581.69,603.8a12.83,12.83,0,0,1-9.5-3.95,13,13,0,0,1-3.9-9.45V545.8h11.9v42.5c0,1.67.18,2.69.55,3.05s1.38.55,3,.55h27.9c1.67,0,2.68-.18,3-.55s.55-1.38.55-3.05V545.8h11.9v44.6a13,13,0,0,1-3.9,9.45,12.83,12.83,0,0,1-9.5,3.95Z" transform="translate(-207.43 -83.21)" style="fill:#494368"/></svg>